<?xml version="1.0" ?>
<!-- Uploaded to: SVG Repo, www.svgrepo.com, Generator: SVG Repo Mixer Tools -->
<svg width="800px" height="800px" viewBox="0 0 64 64" xmlns="http://www.w3.org/2000/svg">
<g id="a"/>
<g id="b"/>
<g id="c"/>
<g id="d"/>
<g id="e"/>
<g id="f"/>
<g id="g"/>
<g id="h"/>
<g id="i"/>
<g id="j"/>
<g id="k"/>
<g id="l"/>
<g id="m"/>
<g id="n"/>
<g id="o"/>
<g id="p"/>
<g id="q"/>
<g id="r"/>
<g id="s"/>
<g id="t"/>
<g id="u"/>
<g id="v"/>
<g id="w"/>
<g id="x"/>
<g id="y"/>
<g id="a`"/>
<g id="aa">
<path d="M30.02,5c-8.18,0-14.81,6.63-14.81,14.81,0,5.56,3.12,10.66,8.07,13.19l8.05,6.25,10.43-10.4c1.99-2.59,3.07-5.76,3.07-9.03,0-8.18-6.63-14.81-14.81-14.81Z" fill="#e38fb6" fill-rule="evenodd"/>
<path d="M30.02,5c-.56,0-1.12,.03-1.66,.09,7.4,.83,13.15,7.1,13.15,14.71,0,3.27-1.08,6.44-3.07,9.03l-8.97,8.95,1.87,1.45,10.43-10.41c1.99-2.59,3.07-5.76,3.07-9.03,0-8.18-6.63-14.81-14.81-14.81Z" fill="#de75a4" fill-rule="evenodd"/>
<path d="M14.44,32.99c-2.4,0-4.33,1.93-4.33,4.33s1.93,4.33,4.33,4.33v8.67c-2.4,0-4.33,1.94-4.33,4.34s1.93,4.33,4.33,4.33h20.3c1,0,1.93-.34,2.66-.91l-1.92-18.93-6.9-6.17H14.44Z" fill="#8996a8" fill-rule="evenodd"/>
<path d="M26.04,50.33H14.44c-2.4,0-4.33-1.93-4.33-4.34s1.93-4.33,4.33-4.33h9.94l1.65,8.67Z" fill="#7a8594" fill-rule="evenodd"/>
<circle cx="39.08" cy="43.39" fill="#e8a3c1" r="14.81"/>
<path d="M47.2,43.39c0,4.48-3.64,8.12-8.12,8.12s-8.12-3.64-8.12-8.12,3.64-8.12,8.12-8.12,8.12,3.64,8.12,8.12Z" fill="#8996a8" fill-rule="evenodd"/>
<path d="M38.14,19.81c0,4.49-3.64,8.12-8.12,8.12s-8.12-3.63-8.12-8.12,3.64-8.12,8.12-8.12,8.12,3.64,8.12,8.12Z" fill="#7a8594" fill-rule="evenodd"/>
<path d="M39.08,28.58c-.67,0-1.33,.05-1.99,.14,7.33,1.01,12.78,7.27,12.78,14.67,0,7.4-5.47,13.66-12.8,14.66,.67,.09,1.34,.14,2.01,.14,8.18,0,14.81-6.63,14.81-14.81s-6.63-14.81-14.81-14.81Z" fill="#e38fb6" fill-rule="evenodd"/>
<path d="M39.08,38.47c-.23,0-.46,.09-.63,.26l-2.65,2.65c-.91,.91-.91,2.37,0,3.28,.53,.53,1.25,.75,1.94,.66l-.28,1.36c-.18,.88,.73,1.62,1.62,1.62s1.8-.74,1.62-1.62l-.28-1.36c.69,.09,1.41-.13,1.94-.66,.91-.91,.91-2.37,0-3.28l-2.65-2.65c-.17-.17-.4-.26-.63-.26Z" fill="#e8a3c1" fill-rule="evenodd"/>
<path d="M30.02,14.89c-.23,0-.46,.09-.63,.26l-2.65,2.65c-.91,.91-.91,2.37,0,3.28,.53,.53,1.25,.75,1.94,.66l-.28,1.36c-.18,.88,.72,1.62,1.62,1.62s1.8-.74,1.62-1.62l-.28-1.36c.69,.09,1.4-.13,1.93-.66,.91-.91,.91-2.37,0-3.28l-2.65-2.65c-.17-.17-.4-.26-.63-.26Z" fill="#e38fb6" fill-rule="evenodd"/>
<path d="M9.11,46c0,1.79,.89,3.37,2.25,4.33-1.35,.97-2.25,2.55-2.25,4.33,0,2.94,2.39,5.33,5.33,5.33h20.3c1.07,0,2.08-.35,2.95-.94,.46,.04,.91,.14,1.38,.14,8.69,0,15.81-7.06,15.81-15.81,0-6.97-4.49-13.16-11.56-15.15,1.59-2.52,2.49-5.44,2.49-8.42,0-8.68-7.06-15.81-15.81-15.81s-15.81,7.09-15.81,15.81c0,4.63,2.03,9.1,5.79,12.19h-5.56c-2.94,0-5.33,2.39-5.33,5.33,0,1.79,.89,3.37,2.25,4.33-1.36,.97-2.25,2.55-2.25,4.33Zm5.34,12c-1.84,0-3.33-1.5-3.33-3.33s1.49-3.33,3.33-3.33h11.05c1.82,3.1,4.13,5.24,7.6,6.67H14.45Zm5.14-29.17c-1.92-2.22-3.09-5.01-3.3-8.02h4.72c.2,1.76,.88,3.36,1.93,4.67l-3.35,3.35Zm.04-18.01l3.31,3.31c-1.05,1.31-1.74,2.91-1.93,4.67h-4.69c.22-3.05,1.42-5.8,3.31-7.98Zm24.11,7.98h-4.69c-.2-1.76-.88-3.36-1.93-4.67l3.31-3.31c1.89,2.18,3.09,4.94,3.31,7.98Zm-8.04-6.09c-1.31-1.05-2.91-1.74-4.67-1.93V6.1c3.05,.22,5.8,1.42,7.98,3.31l-3.31,3.31Zm-6.67-1.93c-1.76,.2-3.36,.88-4.67,1.93l-3.31-3.31c2.18-1.89,4.94-3.09,7.98-3.31v4.69Zm-6.12,9.02h0c0-3.93,3.19-7.12,7.12-7.12h0c3.93,0,7.12,3.19,7.12,7.12h0c0,3.93-3.19,7.12-7.12,7.12s-7.12-3.19-7.12-7.12Zm8.12,9.02c1.76-.2,3.36-.88,4.67-1.93l.93,.93c-2.03,.32-3.91,1.02-5.61,2.04v-1.04Zm17.05,4.16l-3.31,3.31c-1.31-1.05-2.91-1.74-4.67-1.93v-4.69c3.05,.22,5.8,1.42,7.98,3.31Zm4.72,9.4h-4.69c-.2-1.76-.88-3.36-1.93-4.67l3.31-3.31c1.89,2.18,3.09,4.94,3.31,7.98Zm-3.31,9.98l-3.31-3.31c1.05-1.31,1.74-2.91,1.93-4.67h4.69c-.22,3.05-1.42,5.8-3.31,7.98Zm-19.38,1.41l3.31-3.31c1.31,1.05,2.91,1.74,4.67,1.93v4.69c-3.05-.22-5.8-1.42-7.98-3.31Zm7.98-24.11v4.69c-1.76,.2-3.36,.88-4.67,1.93l-3.31-3.31c2.18-1.89,4.94-3.09,7.98-3.31Zm1,6.59c3.93,0,7.12,3.19,7.12,7.12s-3.2,7.12-7.12,7.12-7.12-3.19-7.12-7.12,3.19-7.12,7.12-7.12Zm1,16.14c1.76-.2,3.36-.88,4.67-1.93l3.31,3.31c-2.18,1.89-4.94,3.09-7.98,3.31v-4.69Zm-8.09-14.69c-1.05,1.31-1.74,2.91-1.93,4.67h-4.69c.22-3.05,1.42-5.8,3.31-7.98l3.31,3.31Zm-1.93,6.67c.2,1.76,.88,3.36,1.93,4.67l-3.31,3.31c-1.89-2.18-3.08-4.94-3.31-7.98h4.69Zm9.15-16.79l-2.11-2.11c1.05-1.31,1.74-2.91,1.93-4.67h4.71c-.19,2.51-1.04,4.94-2.5,6.99-.67-.09-1.33-.2-2.02-.2Zm-18.21,2.65l3.34-3.34c1.31,1.05,2.91,1.74,4.67,1.93v2.47c-.28,.23-.58,.44-.84,.69h-4.62c-.93-.49-1.78-1.09-2.55-1.76Zm-9.89,7.09c0-1.84,1.5-3.33,3.33-3.33h12c-1.44,1.94-2.46,4.19-2.89,6.67H14.44c-1.84,0-3.33-1.5-3.33-3.33Zm3.33,5.33h8.9c-.01,.25-.07,.48-.07,.72,0,2.1,.43,4.11,1.18,5.94H14.44c-1.84,0-3.33-1.5-3.33-3.33s1.5-3.33,3.33-3.33Z"/>
<path d="M36.53,46.22l-.05,.27c-.13,.64,.04,1.29,.47,1.82,.5,.62,1.32,1,2.13,1s1.63-.38,2.13-1c.43-.53,.6-1.18,.47-1.83l-.05-.27c.54-.15,1.03-.44,1.44-.85,.63-.63,.97-1.46,.98-2.35,0-.89-.35-1.72-.98-2.35l-2.65-2.65c-.71-.71-1.95-.71-2.67,0l-2.65,2.65c-.63,.63-.98,1.46-.98,2.35,0,.89,.35,1.72,.97,2.35,.41,.41,.9,.7,1.44,.85Zm-.03-4.13l2.57-2.58,2.58,2.58c.25,.25,.39,.58,.39,.93s-.14,.68-.39,.93c-.29,.29-.7,.42-1.1,.38-.33-.04-.64,.08-.86,.31-.22,.24-.31,.56-.25,.88l.28,1.36s.01,.07-.06,.16c-.25,.31-.91,.31-1.17,0-.08-.09-.06-.14-.06-.16l.28-1.36c.06-.32-.03-.64-.25-.88-.19-.21-.46-.32-.73-.32-.37,0-.77,.09-1.23-.37-.25-.25-.39-.58-.39-.93s.14-.68,.39-.93Z"/>
<path d="M32.15,24.73c.43-.53,.6-1.18,.47-1.82l-.05-.27c.54-.15,1.03-.44,1.44-.85,.63-.63,.98-1.46,.98-2.35,0-.89-.35-1.72-.98-2.35l-2.65-2.65c-.71-.71-1.95-.71-2.67,0l-2.65,2.65c-.63,.63-.97,1.46-.98,2.35,0,.89,.35,1.72,.97,2.35,.41,.41,.9,.7,1.44,.85l-.05,.27c-.13,.64,.04,1.29,.47,1.82,.5,.62,1.32,1,2.13,1s1.63-.38,2.13-1Zm-2.72-1.27c-.07-.09-.06-.14-.06-.16l.28-1.36c.06-.32-.03-.64-.25-.88-.19-.21-.46-.32-.73-.32-.3,0-.76,.11-1.23-.37-.51-.51-.51-1.35,0-1.87l2.58-2.58,2.57,2.58c.25,.25,.39,.58,.39,.93,0,.35-.14,.68-.39,.93-.29,.29-.69,.43-1.1,.38-.31-.04-.64,.07-.86,.31-.22,.24-.31,.56-.25,.88l.28,1.36s.01,.07-.06,.16c-.26,.31-.91,.31-1.17,0Z"/>
</g>
<g id="ab"/>
<g id="ac"/>
<g id="ad"/>
<g id="ae"/>
<g id="af"/>
<g id="ag"/>
<g id="ah"/>
<g id="ai"/>
<g id="aj"/>
<g id="ak"/>
<g id="al"/>
<g id="am"/>
<g id="an"/>
<g id="ao"/>
<g id="ap"/>
<g id="aq"/>
<g id="ar"/>
<g id="as"/>
<g id="at"/>
<g id="au"/>
<g id="av"/>
<g id="aw"/>
<g id="ax"/>
</svg>