<svg xmlns="http://www.w3.org/2000/svg" xmlns:xlink="http://www.w3.org/1999/xlink" width="1000" zoomAndPan="magnify" viewBox="0 0 750 749.999995" height="1000" preserveAspectRatio="xMidYMid meet" version="1.0"><defs><clipPath id="bcb6c9437f"><path d="M 270.4375 445 L 361.296875 445 L 361.296875 530.542969 L 270.4375 530.542969 Z M 270.4375 445 " clip-rule="nonzero"/></clipPath></defs><path fill="#231f20" d="M 377.53125 334.890625 C 391.617188 308.300781 405.273438 281.492188 419.492188 254.972656 C 423.800781 247.265625 427.585938 239.28125 431.792969 231.519531 C 434.484375 225.910156 437.597656 222.363281 443.488281 221.347656 C 434.40625 219.96875 428.960938 228.164062 424.214844 234.53125 C 414.035156 248.996094 406.664062 265.207031 398.230469 280.710938 C 389.589844 300.421875 365.890625 331.773438 372.902344 352.996094 C 372.527344 346.550781 374.671875 340.5 377.53125 334.890625 " fill-opacity="1" fill-rule="nonzero"/><path fill="#231f20" d="M 496.042969 294.597656 C 497.394531 295.96875 498.757812 297.328125 500.144531 298.667969 C 487.441406 273.660156 469.136719 252.421875 448.929688 233.183594 C 461.195312 256.042969 478.148438 275.964844 496.042969 294.597656 " fill-opacity="1" fill-rule="nonzero"/><path fill="#231f20" d="M 478.867188 388.292969 C 487.84375 374.902344 494.933594 360.402344 501.511719 345.714844 C 481.140625 369.792969 463.703125 396.671875 452.03125 426.046875 C 461.773438 414.058594 470.59375 401.332031 478.867188 388.292969 " fill-opacity="1" fill-rule="nonzero"/><path fill="#231f20" d="M 471.273438 226.632812 C 496.84375 230.753906 522.410156 234.867188 547.902344 239.449219 C 556.859375 241.21875 567.066406 239.144531 573.363281 247.203125 C 570.46875 239.855469 563.074219 237.117188 555.921875 235.5625 C 540.847656 230.972656 525.28125 228.578125 509.765625 226.042969 C 488.308594 222.003906 466.578125 219.328125 444.757812 221.78125 C 453.53125 223.761719 462.40625 225.160156 471.273438 226.632812 " fill-opacity="1" fill-rule="nonzero"/><path fill="#231f20" d="M 631.875 335.9375 C 629.035156 327.621094 623.683594 320.492188 619.144531 313.054688 C 605.898438 290.574219 593.921875 266.769531 574.914062 248.4375 C 587.597656 272.714844 601.347656 296.398438 615.472656 319.859375 C 619.664062 326.515625 625.207031 332.324219 628.660156 339.4375 C 631.929688 349.238281 622.8125 357.863281 617.945312 365.554688 C 610.605469 376.011719 604.292969 387.132812 597.746094 398.09375 C 590.621094 410.496094 582.136719 422.011719 574.480469 434.070312 C 568.664062 443.402344 565.195312 455.394531 554.578125 459.964844 C 562.074219 458.789062 568.042969 454.3125 572.242188 448.121094 C 579.390625 438.820312 585.777344 428.972656 592.414062 419.304688 C 606.023438 398.230469 619.292969 376.683594 627.828125 352.976562 C 630.675781 347.378906 634.707031 342.683594 631.875 335.9375 " fill-opacity="1" fill-rule="nonzero"/><path fill="#231f20" d="M 523.78125 458.421875 C 497.441406 458.265625 471 455.828125 444.722656 458.429688 C 427.125 450.386719 416.488281 431.035156 406.335938 414.613281 C 395.867188 393.808594 385.925781 372.757812 373.996094 352.714844 C 378.945312 375.914062 389.828125 397.253906 400.617188 418.195312 C 411.28125 436.464844 424.679688 458.664062 448.148438 459.929688 C 447.109375 459.53125 446.089844 459.078125 445.078125 458.605469 C 460.78125 461.886719 476.636719 464.160156 492.707031 464.414062 C 513.558594 465.308594 534.730469 465.609375 555.191406 460.960938 C 544.710938 460.234375 534.253906 459.265625 523.78125 458.421875 " fill-opacity="1" fill-rule="nonzero"/><path fill="#231f20" d="M 548.75 334.265625 C 542.285156 334.195312 535.789062 333.839844 529.339844 334.3125 C 558.4375 342.332031 588.941406 345.625 618.988281 341.867188 C 609.777344 340.21875 600.535156 338.730469 591.25 337.566406 C 591.511719 337.605469 591.769531 337.640625 592.03125 337.671875 C 577.671875 335.824219 563.21875 334.609375 548.75 334.265625 " fill-opacity="1" fill-rule="nonzero"/><path fill="#231f20" d="M 509.519531 429.953125 C 535.511719 443.191406 565.039062 418.441406 571.714844 393.386719 C 563.457031 406.175781 551.40625 417 537.972656 424.011719 C 528.046875 428.421875 515.414062 433.242188 505.75 426.117188 C 506.804688 427.578125 508.0625 428.890625 509.519531 429.953125 " fill-opacity="1" fill-rule="nonzero"/><path fill="#231f20" d="M 505.09375 410.671875 C 510.09375 399.285156 523.339844 389.734375 534.40625 384.277344 C 545.28125 378.914062 566.820312 372.015625 569.871094 388.996094 C 571.917969 376.585938 557.945312 371.816406 547.859375 373.101562 C 527.242188 375.246094 487.222656 402.230469 505.449219 425.324219 C 502.894531 420.480469 502.910156 416.007812 505.09375 410.671875 " fill-opacity="1" fill-rule="nonzero"/><path fill="#231f20" d="M 414.183594 390.3125 C 415.160156 396.441406 418.984375 402.210938 424.792969 404.691406 C 414.988281 394.835938 417.171875 370.609375 430.464844 364.597656 C 418.273438 365.378906 411.390625 379.28125 414.183594 390.3125 " fill-opacity="1" fill-rule="nonzero"/><path fill="#231f20" d="M 431.472656 404.300781 C 441.605469 399.144531 443.515625 384.304688 439.414062 374.5625 C 437.839844 370.523438 435.347656 364.460938 430.011719 365.53125 C 435.300781 366.035156 435.269531 375.246094 435.886719 378.21875 C 436.375 385.921875 436.742188 403.097656 426.613281 404.214844 C 428.210938 404.539062 429.875 404.722656 431.472656 404.300781 " fill-opacity="1" fill-rule="nonzero"/><path fill="#231f20" d="M 409.207031 350.679688 C 413.878906 340.984375 413.03125 325.667969 401.894531 320.9375 C 402.105469 321.128906 402.308594 321.335938 402.5 321.546875 C 389.761719 323.75 383.785156 340.355469 387.835938 351.632812 C 389.402344 357.234375 394.523438 364.585938 401.113281 361.5625 C 394.355469 362.203125 392.691406 353.480469 392.242188 348.769531 C 391.679688 339.148438 393.597656 326.933594 402.59375 321.640625 C 410.015625 329.128906 407.300781 352.363281 401.046875 360.269531 C 404.894531 358.207031 407.523438 354.640625 409.207031 350.679688 " fill-opacity="1" fill-rule="nonzero"/><path fill="#231f20" d="M 445.78125 331.832031 C 446.382812 338.152344 450.371094 347.839844 456.515625 350.3125 C 453.613281 347.78125 452.765625 342.242188 451.628906 338.207031 C 452.628906 342.078125 454.660156 345.636719 456.835938 348.96875 C 454.664062 337.140625 454.238281 328.714844 455.363281 317.398438 C 453.453125 320.890625 451.71875 324.609375 451.203125 328.597656 C 451.871094 321.921875 453.554688 311.957031 461.78125 310.535156 C 450.851562 308.609375 445.074219 322.785156 445.78125 331.832031 " fill-opacity="1" fill-rule="nonzero"/><path fill="#231f20" d="M 466.433594 334.710938 C 465.046875 340.304688 463.785156 346.542969 458.082031 349.644531 C 474.753906 346.539062 477.855469 316.164062 461.148438 310.898438 C 468.53125 316.648438 467.519531 326.925781 466.433594 334.710938 " fill-opacity="1" fill-rule="nonzero"/><path fill="#231f20" d="M 424.242188 269.371094 C 416.894531 274.148438 414.289062 284.152344 415.042969 292.484375 C 415.5 299.5 419.722656 310.539062 428.574219 307.609375 C 418.109375 306.707031 420.484375 292.539062 420.890625 285.328125 C 422.148438 277.257812 423.695312 270.652344 431.144531 268.074219 C 437.753906 273.894531 435.6875 283.527344 434.9375 291.65625 C 434.96875 291.4375 434.996094 291.222656 435.027344 291.003906 C 434.328125 296.796875 433.144531 303.363281 428.304688 307.054688 C 442.480469 302.617188 445.886719 273.800781 431.21875 268.050781 C 431.574219 267.945312 431.9375 267.855469 432.296875 267.753906 C 429.53125 267.308594 426.632812 267.933594 424.242188 269.371094 " fill-opacity="1" fill-rule="nonzero"/><path fill="#231f20" d="M 363.039062 394.558594 C 358.980469 367.824219 355.75 340.40625 347.859375 314.339844 C 346.90625 346.285156 354.519531 378.367188 358.464844 409.902344 C 359.878906 419.945312 361.257812 430.003906 363.65625 439.867188 C 364.066406 441.742188 363.871094 443.84375 363.214844 445.769531 C 366.773438 440.710938 365.050781 434.089844 365.574219 428.289062 C 365.925781 416.976562 364.917969 405.707031 363.039062 394.558594 " fill-opacity="1" fill-rule="nonzero"/><g clip-path="url(#bcb6c9437f)"><path fill="#231f20" d="M 332.222656 469.988281 C 317.769531 485.121094 302.59375 499.558594 288.652344 515.175781 C 284.648438 519.664062 280.625 524.160156 276.28125 528.324219 C 274.871094 529.996094 272.695312 530.089844 270.683594 530.347656 C 282.890625 533.4375 308.910156 502.535156 318.074219 494.113281 C 333.394531 478.914062 348.191406 463.1875 361.085938 445.847656 C 350.894531 453.167969 341.316406 461.351562 332.222656 469.988281 " fill-opacity="1" fill-rule="nonzero"/></g><path fill="#231f20" d="M 208.824219 512.820312 C 196.128906 509.453125 183.59375 505.546875 171.109375 501.472656 C 162.949219 498.820312 154.738281 497.5625 146.898438 493.851562 C 142.9375 491.246094 140.964844 488.292969 138.636719 484.148438 C 141.539062 502.695312 163.625 505.253906 178.199219 510.835938 C 208.476562 520.308594 239.367188 529.394531 271.359375 529.332031 C 250.902344 522.429688 229.652344 518.375 208.824219 512.820312 " fill-opacity="1" fill-rule="nonzero"/><path fill="#231f20" d="M 135.0625 439.550781 C 130.027344 413.316406 125.789062 386.8125 117.847656 361.25 C 119.136719 355.300781 125.34375 352.601562 129.601562 348.976562 C 137.382812 343.316406 144.625 337.007812 151.871094 330.695312 C 150.597656 332.695312 150.242188 335.152344 151.078125 337.378906 C 151.921875 330.035156 159.589844 328.722656 166.617188 327 C 173.570312 326.023438 182.042969 320.9375 187.933594 325.261719 C 187.378906 332.828125 159.105469 343.597656 152.671875 337.585938 C 161.917969 348.183594 180.65625 341.683594 187.363281 331.015625 C 189.078125 328.792969 189.949219 325.609375 187.484375 323.5625 C 187.5 323.597656 187.515625 323.644531 187.535156 323.683594 C 180.953125 317.421875 167.453125 320.910156 159.867188 323.972656 C 174.273438 311.664062 189.921875 300.769531 203.222656 287.203125 C 207.789062 282.785156 211.121094 278.023438 217.625 278.671875 C 246.484375 288.222656 276.742188 292.496094 306.375 298.972656 C 314.136719 300.640625 321.929688 302.183594 329.683594 303.894531 C 338.085938 305.859375 345.058594 305.980469 347.25 315.789062 C 347.386719 310.378906 345.472656 304.695312 340.050781 302.660156 C 326.828125 295.617188 311.898438 293.269531 297.394531 290.308594 C 280.035156 286.949219 262.84375 282.578125 245.292969 280.316406 C 235.316406 278.6875 224.9375 279.84375 215.160156 277.558594 C 204.839844 275.167969 173.582031 305.40625 162.707031 312.863281 C 149.554688 323.882812 136.078125 334.628906 124.324219 347.164062 C 119.332031 351.984375 114.953125 358.113281 117.207031 365.371094 C 117.21875 365.292969 117.226562 365.21875 117.242188 365.144531 C 117.066406 385.277344 121.753906 404.804688 125.390625 424.460938 C 129.238281 445.066406 132.449219 466.28125 142.089844 485.140625 C 139.175781 469.414062 138.707031 456.804688 135.0625 439.550781 " fill-opacity="1" fill-rule="nonzero"/><path fill="#231f20" d="M 252.679688 421.648438 C 253.472656 436.722656 256.308594 451.539062 259.722656 466.207031 C 263.066406 483.101562 266.84375 499.953125 272.648438 516.195312 C 271.730469 480.597656 262.804688 445.773438 252.699219 411.878906 C 252.878906 411.746094 253.058594 411.617188 253.238281 411.484375 C 251.058594 411.542969 252.9375 419.792969 252.679688 421.648438 " fill-opacity="1" fill-rule="nonzero"/><path fill="#231f20" d="M 226.808594 381.078125 C 226.695312 381.066406 226.585938 381.050781 226.472656 381.03125 C 226.894531 381.089844 228.347656 381.28125 228.269531 381.269531 C 230.972656 381.589844 233.289062 382.066406 235.964844 382.125 C 203.035156 367.789062 166.726562 364.96875 131.351562 361.761719 C 162.179688 373.789062 194.09375 376.054688 226.808594 381.078125 " fill-opacity="1" fill-rule="nonzero"/><path fill="#231f20" d="M 301.441406 348.113281 C 315.617188 337.328125 329.480469 325.773438 340.414062 311.605469 C 320.53125 324.960938 300.929688 339.644531 282.703125 353.933594 C 273.113281 361.800781 265.0625 371.230469 256.769531 380.394531 C 268.253906 373.40625 279.332031 364.703125 289.652344 356.925781 C 289.425781 357.105469 289.199219 357.28125 288.972656 357.453125 C 293.074219 354.269531 297.273438 351.214844 301.441406 348.113281 " fill-opacity="1" fill-rule="nonzero"/><path fill="#231f20" d="M 231.421875 352.261719 C 231.65625 353.230469 232.101562 354.144531 232.582031 355.015625 C 230.988281 345.972656 244.773438 343.449219 251.050781 341.640625 C 257.101562 340.410156 268.78125 339.679688 273.929688 345.316406 C 266.757812 329.300781 231.964844 334.839844 231.421875 352.261719 " fill-opacity="1" fill-rule="nonzero"/><path fill="#231f20" d="M 257.898438 360 C 264.21875 358.382812 275.058594 353.199219 273.980469 345.4375 C 272.449219 354.503906 241.578125 359.316406 234.265625 355.507812 C 240.371094 361.296875 250.054688 361.867188 257.898438 360 " fill-opacity="1" fill-rule="nonzero"/><path fill="#231f20" d="M 270.734375 318.417969 C 276.757812 331.28125 305.394531 326.496094 310.730469 315.171875 C 310.378906 307.667969 301.550781 305.296875 295.238281 304.902344 C 285.429688 304.164062 273.160156 308.21875 269.140625 317.878906 C 273.632812 311.109375 305.941406 305.203125 310.125 313.417969 C 309.414062 318.355469 299.507812 318.511719 295.4375 319.867188 C 287.105469 320.859375 277.867188 324.421875 270.734375 318.417969 " fill-opacity="1" fill-rule="nonzero"/><path fill="#231f20" d="M 266.621094 297.945312 C 257.21875 292.230469 244.570312 295.148438 236.269531 301.601562 C 233.914062 303.597656 230.039062 307.398438 232.851562 310.453125 C 231.234375 304.667969 243.527344 302.570312 248.316406 301.054688 C 255.121094 299.742188 264.929688 296.472656 269.894531 303 C 269.410156 300.988281 268.367188 299.125 266.621094 297.945312 " fill-opacity="1" fill-rule="nonzero"/><path fill="#231f20" d="M 267.277344 305.390625 C 259.148438 308.765625 250.695312 310.277344 242.160156 312.140625 C 242.292969 312.125 242.429688 312.105469 242.566406 312.089844 C 239.96875 312.480469 237.246094 312.71875 234.078125 311.242188 C 242.394531 320.070312 267.117188 313.664062 270.910156 302.484375 C 269.984375 303.851562 268.828125 304.515625 267.277344 305.390625 " fill-opacity="1" fill-rule="nonzero"/><path fill="#231f20" d="M 189.757812 340.691406 C 189.339844 342.300781 189.902344 343.957031 190.816406 345.289062 C 188.792969 333.699219 219.980469 326.714844 227.582031 332.242188 C 229.363281 338.605469 221.503906 340.59375 217.121094 342.824219 C 209.921875 345.632812 200.5 349.777344 193.09375 345.988281 C 200.363281 353.921875 213.703125 351.09375 221.71875 345.65625 C 225.832031 342.921875 231.664062 337.746094 227.96875 332.511719 C 228.53125 332.925781 229.03125 333.34375 229.722656 333.859375 C 221.339844 319.371094 194.105469 325.410156 189.757812 340.691406 " fill-opacity="1" fill-rule="nonzero"/><path fill="#231f20" d="M 220.648438 334.542969 C 221.808594 334.238281 222.96875 333.957031 224.136719 333.695312 C 213.617188 331.265625 201.824219 334.65625 194.820312 343.035156 C 202.800781 339.527344 212.125 337.066406 220.648438 334.542969 " fill-opacity="1" fill-rule="nonzero"/><path fill="#231f20" d="M 257.539062 303.707031 C 260.546875 303.066406 263.570312 302.507812 266.554688 301.765625 C 256.289062 298.996094 245.410156 301.554688 237.730469 308.988281 C 244.289062 307.046875 250.875 305.230469 257.539062 303.707031 " fill-opacity="1" fill-rule="nonzero"/><path fill="#231f20" d="M 270.339844 346.273438 C 259.367188 342.996094 247.3125 344.757812 237.648438 350.875 C 248.621094 349.808594 259.5 348.230469 270.339844 346.273438 " fill-opacity="1" fill-rule="nonzero"/><path fill="#231f20" d="M 254.34375 348.957031 C 254.160156 348.980469 253.980469 349.003906 253.800781 349.027344 C 253.980469 349.003906 254.160156 348.980469 254.34375 348.957031 " fill-opacity="1" fill-rule="nonzero"/><path fill="#231f20" d="M 294.007812 315.105469 C 297.019531 314.679688 300.738281 314.335938 304.117188 314.007812 C 294.855469 310.214844 284.535156 311.769531 276.296875 317.261719 C 284.222656 316.457031 286.792969 315.820312 294.007812 315.105469 " fill-opacity="1" fill-rule="nonzero"/><path fill="#231f20" d="M 226.628906 294.472656 C 222.796875 288.542969 214.089844 289.683594 207.976562 290.230469 C 201.242188 291.203125 190.753906 296.503906 191.46875 304.375 C 193.214844 298.304688 202.382812 296.292969 208.289062 295.171875 C 213.894531 294.644531 221.027344 291.46875 225.996094 294.972656 C 226.054688 300.230469 211.679688 301.769531 207.558594 303.699219 C 202.320312 305.292969 197.640625 306.808594 192.285156 305.871094 C 200.140625 312.226562 225.613281 306.476562 226.785156 295.789062 C 226.980469 296.011719 227.179688 296.234375 227.390625 296.441406 C 227.136719 295.789062 226.933594 295.105469 226.628906 294.472656 " fill-opacity="1" fill-rule="nonzero"/><path fill="#231f20" d="M 208.78125 301.175781 C 213.589844 299.765625 218.371094 298.222656 223.113281 296.605469 C 213.007812 295.226562 202.878906 298.207031 194.246094 303.40625 C 199.121094 302.925781 204.003906 302.289062 208.78125 301.175781 " fill-opacity="1" fill-rule="nonzero"/><path fill="#231f20" d="M 159.457031 334.378906 C 168.191406 333.734375 176.546875 330.964844 184.597656 327.636719 C 178.691406 327.34375 172.652344 327.839844 167.019531 329.722656 C 163.15625 330.582031 159.746094 333.730469 155.773438 333.550781 C 156.824219 334.351562 158.167969 334.472656 159.457031 334.378906 " fill-opacity="1" fill-rule="nonzero"/><path fill="#231f20" d="M 200.265625 433.679688 C 206.570312 443.058594 226.109375 451.125 231.335938 436.839844 C 220.9375 449.46875 203.082031 430.480469 199.480469 420.613281 C 199.554688 420.789062 199.628906 420.972656 199.707031 421.152344 C 198.171875 416.90625 197.886719 413.726562 200.09375 409.433594 C 203.417969 407.292969 207.339844 409.355469 211.019531 411.136719 C 217.785156 416.496094 229.964844 427.324219 231.066406 436.261719 C 233.515625 425.019531 224.101562 414.019531 215.019531 408.558594 C 195.519531 400.558594 189.839844 419.84375 200.265625 433.679688 " fill-opacity="1" fill-rule="nonzero"/><path fill="#231f20" d="M 203.207031 419.625 C 202.03125 417.871094 201.023438 416.007812 200 414.160156 C 200.472656 426.917969 210.355469 438.589844 223.199219 440.121094 C 216.222656 435.871094 210.300781 429.015625 205.386719 422.808594 C 205.476562 422.925781 205.566406 423.042969 205.660156 423.160156 C 204.824219 421.992188 204.003906 420.820312 203.207031 419.625 " fill-opacity="1" fill-rule="nonzero"/><path fill="#231f20" d="M 141.074219 397.625 C 130.574219 413.453125 162.492188 444.675781 174.714844 425.652344 C 163.289062 439.0625 131.222656 400.777344 146.160156 394.972656 C 144.042969 394.710938 142.226562 395.910156 141.074219 397.625 " fill-opacity="1" fill-rule="nonzero"/><path fill="#231f20" d="M 169.816406 415.382812 C 171.460938 418.140625 172.921875 421.148438 173.101562 424.40625 C 177.246094 409.898438 159.714844 389.976562 145.511719 396.574219 C 154.28125 395.976562 160.257812 403.589844 166.320312 410.449219 C 166.199219 410.289062 166.078125 410.132812 165.957031 409.980469 C 167.320312 411.722656 168.675781 413.480469 169.816406 415.382812 " fill-opacity="1" fill-rule="nonzero"/><path fill="#231f20" d="M 153.398438 412.742188 C 150.164062 407.933594 145.839844 403.128906 145.605469 397.167969 C 141.894531 409.414062 153.027344 421.382812 163.988281 425.179688 C 159.445312 420.539062 156.574219 417.4375 153.398438 412.742188 " fill-opacity="1" fill-rule="nonzero"/><path fill="#231f20" d="M 156.902344 473.773438 C 162.015625 481.25 170.820312 488.28125 180.355469 487.234375 C 184.1875 486.960938 187.523438 484.40625 187.742188 480.398438 C 183.507812 488.398438 173.699219 482.234375 168.613281 477.789062 C 163.65625 473.699219 149.730469 461.105469 158.363281 455.210938 C 149.945312 456.800781 153.375 468.835938 156.902344 473.773438 " fill-opacity="1" fill-rule="nonzero"/><path fill="#231f20" d="M 188.144531 473.867188 C 186.363281 462.535156 171.304688 451.960938 160.050781 454.296875 C 167.695312 455.582031 172.390625 461.390625 178.078125 465.445312 C 182.160156 468.246094 187.441406 474.003906 187.476562 479.609375 C 187.980469 477.746094 188.429688 475.804688 188.144531 473.867188 " fill-opacity="1" fill-rule="nonzero"/><path fill="#231f20" d="M 171.359375 478.503906 C 172.109375 478.882812 172.871094 479.246094 173.640625 479.585938 C 173.847656 479.6875 173.707031 479.585938 173.621094 479.46875 C 168.640625 473.417969 162.839844 468.03125 157.984375 461.902344 C 159.324219 469.207031 164.757812 475.339844 171.359375 478.503906 " fill-opacity="1" fill-rule="nonzero"/><path fill="#231f20" d="M 216.070312 492.796875 C 222.925781 500.636719 239.339844 507.097656 245.304688 495.132812 C 239.40625 501.347656 230.96875 497.410156 225.300781 493.023438 C 225.492188 493.179688 225.6875 493.328125 225.878906 493.476562 C 220.535156 489.441406 214.195312 482.683594 212.242188 476.96875 C 209.46875 469.675781 214.628906 467.050781 221.121094 469.5 C 229.175781 472.367188 242.503906 483.09375 244.773438 492.011719 C 246.007812 481.308594 236.890625 471.371094 227.375 467.792969 C 222.414062 466.015625 217.410156 467.027344 212.617188 468.671875 C 204.003906 474.117188 210.753906 487.113281 216.070312 492.796875 " fill-opacity="1" fill-rule="nonzero"/><path fill="#231f20" d="M 221.238281 483.234375 C 218.054688 480.011719 215.425781 477.078125 212.734375 473.371094 C 214.816406 483.75 223.273438 494.6875 234.6875 494.46875 C 229.238281 492.242188 225.625 488.039062 221.238281 483.234375 " fill-opacity="1" fill-rule="nonzero"/><path fill="#231f20" d="M 308.1875 470.824219 C 324.925781 468.03125 332.957031 432.164062 311.875 431.152344 C 318.429688 433.621094 320.128906 438.742188 319.238281 445.789062 C 318.375 453.636719 313.101562 471.507812 301.785156 469.613281 C 303.625 471.027344 305.960938 471.203125 308.1875 470.824219 " fill-opacity="1" fill-rule="nonzero"/><path fill="#231f20" d="M 301.039062 456.125 C 302.851562 450.117188 304.894531 442.046875 307.191406 436.714844 C 307.148438 436.820312 307.105469 436.925781 307.058594 437.035156 C 307.964844 434.589844 309.398438 432.734375 311.46875 431.289062 C 299.675781 434.105469 290.628906 461.800781 301.578125 469.382812 C 298.785156 465.507812 299.875 460.476562 301.039062 456.125 " fill-opacity="1" fill-rule="nonzero"/><path fill="#231f20" d="M 309.351562 466.089844 C 316.332031 459.082031 321.15625 447.652344 315.320312 438.53125 C 316.335938 447.875 311.957031 457.125 309.351562 466.089844 " fill-opacity="1" fill-rule="nonzero"/><path fill="#231f20" d="M 331.324219 402.617188 C 339.777344 396.496094 343.503906 385.214844 341.464844 375.121094 C 340.445312 368.902344 336.460938 361.304688 329.125 362.214844 C 337.828125 364.234375 336.761719 376.242188 336.148438 383.023438 C 336.078125 383.527344 336.011719 384.035156 335.945312 384.542969 C 335.980469 384.285156 336.011719 384.023438 336.050781 383.765625 C 334.257812 391.792969 331.554688 404.21875 322.015625 403.183594 C 325.015625 404.71875 328.609375 404.8125 331.324219 402.617188 " fill-opacity="1" fill-rule="nonzero"/><path fill="#231f20" d="M 323.023438 371.851562 C 324.152344 368.480469 325.320312 364.648438 328.375 362.933594 C 314.9375 366.9375 310.117188 395.070312 322.292969 403.003906 C 318.484375 397.28125 319.359375 389.898438 320.464844 384.757812 C 321.296875 380.453125 321.6875 376.046875 323.023438 371.851562 " fill-opacity="1" fill-rule="nonzero"/><path fill="#231f20" d="M 334.453125 375.015625 C 334.035156 372.902344 333.527344 370.808594 332.914062 368.738281 C 331.410156 378.917969 331.355469 389.269531 328.785156 399.28125 C 334.398438 392.457031 336.441406 383.628906 334.453125 375.015625 " fill-opacity="1" fill-rule="nonzero"/><path fill="#231f20" d="M 429.007812 368.894531 C 429.1875 368.546875 429.375 368.207031 429.589844 367.882812 C 419.109375 375.371094 417.152344 390.792969 424.238281 401.273438 C 422.800781 390.539062 424.246094 378.613281 429.007812 368.894531 " fill-opacity="1" fill-rule="nonzero"/><path fill="#231f20" d="M 398.191406 338.671875 C 398.695312 334.332031 399.808594 330.117188 401.265625 326.003906 C 393.457031 333.191406 391.445312 347.226562 397.214844 355.164062 C 396.671875 348.898438 396.9375 345.394531 398.191406 338.671875 " fill-opacity="1" fill-rule="nonzero"/><path fill="#231f20" d="M 423.617188 291.695312 C 423.667969 291.996094 423.726562 292.300781 423.785156 292.597656 C 425.652344 285.871094 426.625 278.921875 429.144531 272.386719 C 423.605469 277.242188 422.128906 284.691406 423.617188 291.695312 " fill-opacity="1" fill-rule="nonzero"/><path fill="#231f20" d="M 556.910156 400.890625 C 542.753906 412.710938 529.355469 421.816406 511.40625 426.9375 C 534.699219 428.648438 559.769531 413.355469 566.042969 390.359375 C 563.652344 394.394531 560.464844 397.855469 556.910156 400.890625 " fill-opacity="1" fill-rule="nonzero"/><path fill="#231f20" d="M 517.136719 275.554688 C 527.273438 273.988281 550.894531 286.847656 546.96875 298.707031 C 538.25 300.253906 526.878906 290.867188 520.058594 286.179688 C 520.207031 286.292969 520.351562 286.402344 520.492188 286.515625 C 517.3125 284.070312 513.695312 280.761719 514.609375 276.285156 C 515.488281 275.933594 516.375 275.648438 517.136719 275.554688 Z M 513.191406 279.246094 C 512.6875 292.261719 535.71875 305.425781 546.804688 299 C 546.78125 299.039062 546.753906 299.085938 546.730469 299.128906 C 549.554688 297.421875 549.566406 293.484375 548.917969 290.609375 C 546.207031 276.023438 524.429688 265.878906 513.125 276.9375 C 513.425781 276.796875 513.738281 276.65625 514.054688 276.515625 C 513.53125 277.335938 513.296875 278.289062 513.191406 279.246094 " fill-opacity="1" fill-rule="nonzero"/><path fill="#231f20" d="M 527.683594 282.699219 C 533.890625 286.003906 540.351562 290.222656 545.40625 294.441406 C 540.410156 283.25 528.722656 276.890625 516.722656 276.824219 C 520.425781 278.6875 524.113281 280.578125 527.683594 282.699219 " fill-opacity="1" fill-rule="nonzero"/><path fill="#231f20" d="M 529.886719 253.96875 C 529.957031 267.042969 552.109375 278.296875 563.023438 272.183594 C 557.175781 273 554.136719 270.523438 548.347656 267.746094 C 541.777344 264.308594 533.480469 261.03125 530.5 253.804688 C 534.882812 247.847656 544.457031 255.421875 549.058594 257.851562 C 554.78125 261.484375 561.503906 265.441406 563.804688 272.191406 C 564.179688 262.339844 555.023438 254.394531 546.578125 250.855469 C 541.730469 248.863281 533.34375 246.914062 530.488281 252.746094 C 530.496094 252.628906 530.503906 252.511719 530.511719 252.398438 C 530.25 252.898438 530.011719 253.417969 529.886719 253.96875 " fill-opacity="1" fill-rule="nonzero"/><path fill="#231f20" d="M 547.089844 257.234375 C 542.816406 255.238281 537.972656 254.460938 533.316406 255.339844 C 538.378906 256.558594 542.914062 259.125 547.328125 261.796875 C 551.984375 264.394531 557.167969 266.726562 561.199219 270.1875 C 558.394531 264.296875 552.917969 259.9375 547.089844 257.234375 " fill-opacity="1" fill-rule="nonzero"/></svg>