<svg xmlns="http://www.w3.org/2000/svg" xmlns:xlink="http://www.w3.org/1999/xlink" width="1000" zoomAndPan="magnify" viewBox="0 0 750 749.999995" height="1000" preserveAspectRatio="xMidYMid meet" version="1.0"><path fill="#000000" d="M 220.039062 542.523438 C 219.199219 539.246094 218.421875 535.96875 217.664062 532.550781 C 209.492188 496.902344 204.4375 460.925781 201.261719 424.496094 C 199.296875 401.707031 200.441406 379.078125 195.570312 356.410156 C 192.210938 340.847656 186.167969 322.542969 185.738281 306.757812 C 185.269531 290.949219 179.820312 264.738281 173.328125 250.792969 C 169.417969 242.316406 168.96875 226.242188 171.34375 217.519531 C 172.101562 214.816406 173.269531 212.503906 174.679688 210.25 C 157.007812 215.390625 137.289062 218.359375 121.621094 228.1875 C 101.902344 240.636719 105.667969 261.914062 112.488281 279.5 C 125.144531 312.019531 139.335938 343.308594 151.046875 376.128906 C 157.519531 394.5 165.179688 409.609375 174.476562 426.421875 C 181.417969 439.015625 188.625 451.75 191.453125 466.0625 C 194.914062 484.0625 199.726562 503.207031 207.179688 520.039062 C 210.722656 527.921875 215.597656 535.132812 220.039062 542.523438 Z M 316.984375 207.035156 C 317.945312 206.460938 318.972656 206.011719 320.078125 205.621094 C 317.1875 205.5625 314.363281 205.4375 311.457031 205.4375 C 291.222656 205.4375 259.808594 203.125 253.828125 227.921875 C 250.941406 239.878906 251.269531 253.292969 251.578125 265.433594 C 253.378906 329.609375 251.964844 394.191406 251.125 458.363281 C 250.675781 490.738281 249.015625 523.316406 247.992188 555.691406 C 247.605469 569.492188 246.886719 584.601562 247.03125 599.816406 C 249.203125 586.136719 251.515625 572.582031 253.195312 559.601562 C 257.105469 528.3125 265.277344 497.679688 270.476562 466.574219 C 276.253906 431.828125 275.679688 397.652344 285.753906 363.476562 C 295.707031 329.609375 293.804688 290.742188 298.226562 255.726562 C 300.417969 238.445312 300.539062 217.070312 316.984375 207.035156 Z M 436.230469 153.652344 C 435.328125 153.140625 434.449219 152.445312 433.855469 151.15625 C 431.210938 145.238281 429.921875 139.789062 427.8125 133.871094 C 422.671875 119.929688 410.078125 129.632812 402.953125 131.375 C 387.328125 135.164062 371.96875 143.128906 356.628906 147.941406 C 328.164062 156.867188 301.441406 169.277344 273.425781 178.777344 C 266.75 181.03125 260.074219 183.078125 253.441406 185.269531 C 253.769531 185.269531 254.09375 185.207031 254.402344 185.144531 C 273.304688 181.664062 292.183594 178 310.882812 173.636719 C 330.089844 169.132812 350.324219 168.949219 369.347656 164.382812 C 390.871094 159.179688 413.558594 155.84375 436.230469 153.652344 Z M 519.679688 199.726562 C 518.714844 184.695312 515.195312 160.472656 495.902344 161.3125 C 492.136719 161.433594 486.730469 162.582031 482.734375 162.582031 C 464.039062 162.582031 446.058594 165.9375 427.566406 167.863281 C 406.496094 170.09375 385.976562 173.003906 365.167969 176.851562 C 348.335938 179.925781 330.542969 179.863281 313.972656 184.816406 C 282.152344 194.257812 248.503906 194.648438 216.621094 201.976562 C 192.210938 207.628906 173.390625 223.621094 185.78125 250.28125 C 191.371094 262.28125 190.734375 276.285156 194.402344 288.960938 C 202.878906 317.996094 206.03125 350.167969 210.96875 380.042969 C 213.734375 396.503906 211.113281 413.070312 213.671875 429.574219 C 215.925781 444.09375 219.464844 461.191406 219.792969 475.625 C 220.367188 503.90625 229.296875 531.792969 236.421875 559.292969 C 236.667969 552.148438 236.933594 545.144531 236.996094 538.285156 C 237.507812 498.128906 239.25 458.222656 239.25 418.085938 C 239.25 377.992188 240.335938 337.902344 240.335938 297.746094 C 240.335938 275.324219 232.695312 236.519531 245.414062 215.960938 C 262.308594 188.667969 298.675781 193.746094 326.425781 193.867188 C 362.464844 194.011719 398.324219 198.105469 434.550781 198.105469 C 462.769531 198.105469 491.296875 198.621094 519.679688 199.726562 Z M 581.238281 240.574219 C 575.132812 202.160156 521.089844 214.242188 491.871094 212.441406 C 458.140625 210.3125 424.414062 211.417969 390.664062 209.675781 C 377.765625 209.019531 364.925781 208.019531 352.0625 207.117188 C 365.496094 209.019531 378.910156 210.964844 392.34375 212.890625 C 455.109375 221.878906 518.144531 233.246094 581.238281 240.574219 Z M 643.757812 328.339844 C 645.867188 315.746094 648.753906 302.761719 648.691406 289.984375 C 648.507812 263.777344 636.242188 258.042969 611.566406 255.542969 C 582.914062 252.65625 554.390625 247.640625 525.863281 243.585938 C 492.503906 238.773438 459.105469 234.023438 425.765625 229.273438 C 408.09375 226.691406 321.101562 204.476562 314.9375 226.691406 C 306.335938 257.734375 304.71875 292.359375 303.160156 324.40625 C 301.832031 352.355469 292.246094 377.480469 288.335938 404.898438 C 283.644531 438.316406 279.980469 470.957031 274.390625 504.230469 C 269.371094 534.167969 265.644531 564.042969 261.367188 593.898438 C 259.359375 607.597656 256.65625 621.542969 254.851562 635.464844 C 255.179688 636.695312 255.632812 637.984375 255.9375 639.253906 C 256.714844 641.957031 255.632812 644.085938 253.828125 645.296875 C 253.582031 647.484375 253.316406 649.675781 253.195312 651.847656 C 251.515625 679.613281 269.578125 688.355469 293.804688 691.632812 C 324.703125 695.730469 355.523438 700.417969 386.363281 704.863281 C 420.808594 709.734375 455.253906 714.691406 489.617188 719.625 C 514.230469 723.105469 556.234375 740.386719 579.046875 727.527344 C 591.210938 714.117188 590.226562 686.925781 591.78125 669.96875 C 593.238281 654.304688 594.28125 638.496094 597.105469 622.996094 C 603.269531 589.351562 609.703125 556.261719 613.878906 522.210938 C 617.972656 488.363281 627.621094 455.273438 630.445312 421.21875 C 633.085938 389.808594 638.472656 359.359375 643.757812 328.339844 Z M 658.726562 271.925781 C 662.003906 291.910156 658.398438 311.628906 654.875 331.347656 C 648.058594 370.210938 645.085938 409.464844 638.433594 448.207031 C 632.246094 484 626.023438 519.382812 621.457031 555.421875 C 616.582031 593.898438 607.121094 631.226562 603.332031 669.96875 C 601.285156 691.304688 602.636719 719.6875 586.828125 736.210938 C 586.5625 736.457031 586.316406 736.539062 586.050781 736.722656 C 585.925781 736.847656 585.804688 736.988281 585.660156 737.113281 C 585.476562 737.234375 585.292969 737.296875 585.085938 737.417969 C 584.902344 737.5 584.777344 737.625 584.636719 737.683594 C 562.417969 750.277344 534.464844 738.382812 511.34375 734.46875 C 468.871094 727.261719 425.949219 722.082031 383.355469 715.960938 C 361.953125 712.949219 340.554688 709.859375 319.238281 706.785156 C 304.265625 704.65625 287.496094 704.472656 273.039062 699.90625 C 256.859375 694.890625 242.402344 681.988281 241.5625 663.804688 C 241.5 663.089844 241.5625 662.394531 241.5 661.757812 C 240.210938 660.917969 239.25 659.691406 239.25 657.910156 C 239.25 652.175781 239.066406 646.585938 238.738281 641.054688 C 237.386719 633.808594 236.605469 626.414062 236.15625 618.960938 C 232.304688 609.851562 228.578125 600.71875 226.65625 590.949219 C 222.925781 572.398438 211.480469 556.261719 203.65625 539.820312 C 186.167969 503.207031 184.058594 459.0625 159.957031 426.113281 C 138.046875 396.117188 133.804688 355 117.421875 321.96875 C 103.683594 294.082031 88.078125 264.59375 100.40625 233.777344 C 111.011719 207.300781 160.671875 202.101562 183.28125 195.730469 C 218.6875 185.78125 254.402344 175.441406 288.703125 162.96875 C 323.742188 150.253906 357.839844 130.472656 394.332031 121.546875 C 404.039062 119.171875 416.570312 111.183594 426.789062 115.566406 C 439.179688 120.828125 438.851562 134.054688 443.867188 145.296875 C 445.28125 148.59375 443.746094 151.605469 441.371094 153.140625 C 457.8125 151.605469 474.257812 150.644531 490.25 149.988281 C 504.402344 149.351562 512.222656 148.902344 521.480469 160.410156 C 529.652344 170.546875 530.613281 187.378906 531.332031 200.175781 C 539.03125 200.566406 546.8125 200.871094 554.511719 201.320312 C 576.609375 202.671875 590.820312 221.941406 593.175781 241.925781 C 601.734375 242.890625 610.273438 243.730469 618.753906 244.488281 C 637.203125 246.042969 655.246094 250.917969 658.726562 271.925781 " fill-opacity="1" fill-rule="nonzero"/><path fill="#000000" d="M 580.273438 629.875 C 586.703125 633.542969 587.339844 640.09375 582.464844 645.5 C 579.25 649.023438 573.722656 653.976562 568.910156 654.878906 C 567.433594 655.207031 566.144531 654.878906 565.039062 654.304688 C 562.929688 655.265625 560.226562 655.207031 556.949219 653.261719 C 551.421875 650.066406 548.410156 642.652344 548.738281 636.511719 C 548.984375 631.492188 551.992188 625.0625 558.238281 626.988281 C 559.855469 627.441406 561.1875 628.277344 562.539062 629.242188 C 562.601562 628.09375 562.601562 626.925781 562.664062 625.78125 C 562.804688 618.328125 574.355469 618.328125 574.234375 625.78125 C 574.171875 626.539062 574.171875 627.5 574.109375 628.605469 C 576.097656 628.339844 578.144531 628.667969 580.273438 629.875 " fill-opacity="1" fill-rule="nonzero"/><path fill="#000000" d="M 568.191406 671.320312 C 570.445312 664.257812 581.625 667.265625 579.371094 674.414062 C 576.546875 683.339844 571.796875 690.589844 567.558594 698.820312 C 564.914062 703.898438 562.804688 713.277344 555.597656 712.949219 C 553.609375 712.828125 551.542969 711.925781 550.582031 710.0625 C 547.242188 703.511719 547.632812 696.445312 547.632812 689.238281 C 547.632812 680.820312 543.78125 672.796875 543.390625 664.316406 C 543.003906 656.863281 554.574219 656.925781 554.960938 664.316406 C 555.351562 671.957031 559.203125 679.226562 559.203125 686.800781 C 559.203125 687.824219 559.140625 688.992188 559.140625 690.199219 C 559.449219 689.503906 559.855469 688.847656 560.226562 688.152344 C 563.316406 682.5625 566.265625 677.484375 568.191406 671.320312 " fill-opacity="1" fill-rule="nonzero"/><path fill="#000000" d="M 433.074219 547.519531 C 433.074219 547.457031 433.136719 547.335938 433.136719 547.210938 C 432.890625 547.398438 432.707031 547.519531 432.441406 547.664062 C 432.625 547.664062 432.890625 547.664062 433.074219 547.722656 C 433.074219 547.664062 433.074219 547.582031 433.074219 547.519531 Z M 479.992188 526.898438 C 509.277344 527.984375 524.246094 505.253906 510.953125 477.695312 C 510.832031 477.511719 510.894531 477.242188 510.75 477 C 495.085938 453.46875 479.847656 429.390625 462.441406 405.226562 C 449.480469 415.570312 436.105469 422.570312 418.679688 429.328125 C 402.5 435.613281 380.835938 449.355469 378.03125 468.828125 C 376.535156 479.558594 373.914062 505.769531 384.644531 513.28125 C 395.375 520.859375 418.496094 524.976562 430.578125 516.949219 C 436.167969 513.222656 442.722656 508.265625 449.910156 510.273438 C 462.648438 513.734375 462.890625 526.265625 479.992188 526.898438 Z M 521.746094 473.515625 C 529.386719 489.714844 533.441406 503.71875 523.078125 519.898438 C 515.5625 531.648438 499.773438 539.164062 486.011719 538.652344 C 479.460938 538.46875 471.433594 538.40625 465.390625 535.375 C 459.371094 532.367188 455.703125 527.800781 451.199219 525.546875 C 451.136719 526.839844 451.078125 528.128906 451.078125 529.417969 C 451.136719 536.09375 452.816406 547.398438 458.917969 551.183594 C 459.554688 551.574219 460.003906 552.085938 460.394531 552.535156 C 467.703125 552.925781 467.703125 564.351562 460.269531 564.105469 C 452.695312 563.839844 445.34375 562.488281 438.03125 560.378906 C 431.089844 558.453125 423.964844 559.929688 416.960938 557.492188 C 414.523438 556.589844 412.78125 554.582031 412.71875 551.902344 C 412.535156 544.449219 419.664062 542.378906 424.988281 539.308594 C 428.386719 537.320312 435.082031 532.878906 435.328125 528.457031 C 435.410156 528.066406 435.453125 527.675781 435.511719 527.289062 C 424.148438 532.878906 405.390625 535.582031 393.429688 530.6875 C 381.878906 525.9375 374.425781 522.414062 370.125 510.578125 C 364.351562 494.855469 362.222656 474.234375 369.675781 458.546875 C 388.105469 419.5 431.027344 420.074219 459.429688 393.597656 C 461.539062 391.609375 465.59375 390.976562 467.582031 393.535156 C 487.179688 418.027344 503.5625 445.566406 520.96875 471.652344 C 521.359375 472.289062 521.5625 472.945312 521.746094 473.515625 " fill-opacity="1" fill-rule="nonzero"/><path fill="#000000" d="M 344.425781 257.734375 C 344.28125 256.566406 344.21875 255.421875 344.21875 254.253906 C 344.21875 252.535156 344.21875 250.671875 344.097656 248.867188 C 343.402344 250.136719 342.683594 251.488281 342.109375 252.902344 C 341.332031 254.457031 340.492188 255.933594 339.734375 257.46875 C 341.273438 257.613281 342.890625 257.613281 344.425781 257.734375 Z M 357.921875 277.84375 C 358.042969 285.296875 346.472656 285.296875 346.351562 277.84375 C 346.289062 275.015625 346.023438 272.191406 345.652344 269.367188 C 342.378906 269.097656 339.039062 268.914062 335.742188 268.773438 C 334.410156 273.339844 333.183594 277.90625 332.015625 282.59375 C 330.214844 289.78125 319.050781 286.710938 320.835938 279.5 C 322.308594 273.542969 323.742188 267.625 325.667969 261.851562 C 327.53125 256.261719 330.335938 251.429688 332.546875 246.042969 C 334.78125 240.636719 341.332031 230.929688 348.542969 233.898438 C 354.519531 236.277344 355.339844 243.730469 355.667969 249.378906 C 356.117188 258.882812 357.777344 268.261719 357.921875 277.84375 " fill-opacity="1" fill-rule="nonzero"/><path fill="#000000" d="M 350.199219 307.964844 C 353.539062 312.078125 355.605469 317.855469 349.894531 321.191406 C 346.085938 323.445312 342.4375 322.871094 339.140625 320.824219 C 338.570312 325.449219 337.03125 329.691406 332.648438 333.273438 C 326.957031 338.023438 318.726562 329.875 324.5 325.125 C 325.972656 323.894531 326.875 322.421875 327.53125 320.824219 C 323.785156 321.007812 320.078125 319.207031 319.050781 315.089844 C 316.800781 305.589844 328.226562 292.667969 338.242188 295.964844 C 343.585938 297.746094 346.863281 303.847656 350.199219 307.964844 " fill-opacity="1" fill-rule="nonzero"/><path fill="#000000" d="M 235.644531 265.558594 C 237.117188 269.878906 232.574219 273.664062 228.519531 272.703125 C 225.753906 271.988281 224.339844 271.351562 221.78125 269.9375 C 218.8125 268.320312 218.503906 265.3125 219.527344 262.9375 C 219.464844 262.8125 219.261719 262.609375 219.199219 262.546875 C 218.566406 261.707031 218.113281 260.886719 217.726562 260.109375 C 216.703125 260.417969 215.597656 260.886719 214.898438 261.523438 C 213.40625 262.875 211.746094 263.183594 210.210938 262.9375 C 209.636719 265.945312 208.980469 269.222656 209.964844 271.988281 C 212.382812 279.050781 201.199219 282.019531 198.761719 275.078125 C 196.53125 268.648438 199.296875 262.9375 199.542969 256.382812 C 199.726562 251.121094 198.96875 245.328125 200.320312 240.125 C 201.855469 233.960938 197.410156 222.597656 207.628906 221.820312 C 215.925781 221.183594 217.726562 230.625 220.613281 236.335938 C 223.378906 241.867188 225.875 246.800781 227.371094 252.71875 C 228.640625 257.980469 233.925781 260.417969 235.644531 265.558594 " fill-opacity="1" fill-rule="nonzero"/><path fill="#000000" d="M 232.429688 293.324219 C 233.332031 296.660156 231.28125 299.21875 228.394531 300.386719 C 227.105469 300.898438 226.082031 302.3125 224.851562 302.949219 C 224.667969 303.089844 224.421875 303.152344 224.195312 303.214844 C 224.464844 311.054688 222.925781 318.183594 212.914062 318.878906 C 205.460938 319.472656 205.5 307.902344 212.914062 307.328125 C 212.976562 307.328125 212.976562 305.773438 212.914062 304.378906 C 211.113281 304.238281 209.308594 304.113281 207.570312 304.113281 L 207.570312 305.015625 C 200.113281 305.015625 200.113281 291.707031 207.570312 291.707031 C 208.921875 291.707031 210.210938 291.707031 211.5625 291.707031 C 211.480469 290.621094 211.417969 289.597656 211.417969 288.511719 C 211.417969 281.058594 223.007812 281.058594 223.007812 288.511719 C 223.007812 289.085938 223.007812 289.71875 223.050781 290.375 C 223.765625 289.984375 224.523438 289.65625 225.304688 289.332031 C 228.25 288.121094 231.671875 290.558594 232.429688 293.324219 " fill-opacity="1" fill-rule="nonzero"/></svg>