<svg xmlns="http://www.w3.org/2000/svg" xmlns:xlink="http://www.w3.org/1999/xlink" width="1000" zoomAndPan="magnify" viewBox="0 0 750 749.999995" height="1000" preserveAspectRatio="xMidYMid meet" version="1.0"><path fill="#000000" d="M 585.613281 653.324219 C 586.851562 621.921875 583.261719 590.417969 583.261719 558.992188 C 583.261719 517.234375 583.261719 475.496094 583.261719 433.734375 C 583.261719 354.734375 580.953125 275.609375 584.707031 196.710938 C 586.128906 166.214844 590.769531 130.976562 580.789062 101.453125 C 569.585938 68.273438 533.265625 77.125 505.480469 77.125 C 437.578125 77.125 369.675781 77.125 301.769531 77.125 C 272.5625 77.125 243.089844 74.628906 213.921875 75.683594 C 200.390625 76.199219 173.699219 75.515625 169.554688 93.035156 C 166.6875 105 168.191406 116.78125 169.246094 128.871094 C 175.0625 194.089844 170.730469 261.722656 170.730469 327.191406 C 170.730469 396.84375 170.730469 466.5 170.730469 536.132812 C 170.730469 572.382812 170.730469 608.59375 170.730469 644.824219 C 170.730469 657.367188 165.410156 681.363281 184.160156 684.023438 C 199.609375 686.210938 214.210938 684.191406 229.703125 683.902344 C 296.347656 682.539062 363.136719 683.777344 429.820312 683.777344 C 459.914062 683.777344 490.03125 683.179688 520.082031 684.953125 C 531.40625 685.613281 542.980469 686.5 554.34375 685.613281 C 575.402344 683.984375 583.902344 676.226562 585.921875 655.347656 C 585.71875 654.746094 585.59375 654.085938 585.613281 653.324219 Z M 589.367188 92.3125 C 597.949219 117.792969 598.339844 146.511719 597.289062 173.085938 C 596.03125 204.921875 595.90625 236.574219 595.90625 268.410156 C 595.90625 337.421875 595.90625 406.4375 595.90625 475.496094 C 595.90625 511.621094 594.503906 547.894531 595.226562 584.0625 C 595.679688 606.550781 597.164062 628.855469 596.441406 651.382812 C 596.609375 651.941406 596.691406 652.5625 596.648438 653.324219 C 595.183594 672.738281 593.039062 689.84375 571.277344 693.949219 C 548.960938 698.15625 526.644531 695.433594 504.160156 694.546875 C 433.574219 691.761719 362.351562 694.300781 291.664062 694.300781 C 257.484375 694.300781 222.253906 697.332031 188.199219 695.226562 C 173.804688 694.339844 160.707031 687.429688 159.097656 671.976562 C 155.980469 641.152344 158.085938 608.945312 158.085938 577.953125 C 158.085938 541.746094 158.085938 505.535156 158.085938 469.261719 C 158.085938 399.628906 158.085938 329.976562 158.085938 260.320312 C 158.085938 224.109375 158.085938 187.941406 158.085938 151.734375 C 158.085938 132.792969 151.484375 108.238281 158.601562 90.125 C 173.742188 51.605469 238.714844 64.480469 270.667969 64.480469 C 337.972656 64.480469 405.277344 64.480469 472.601562 64.480469 C 498.40625 64.480469 527.445312 60.746094 553.003906 64.996094 C 569.503906 67.78125 583.695312 75.515625 589.367188 92.3125 " fill-opacity="1" fill-rule="nonzero"/><path fill="#000000" d="M 551.3125 555.589844 C 546.484375 550.617188 542.257812 545.109375 538.730469 539.164062 C 535.988281 541.640625 533.121094 544.015625 530.683594 546.839844 C 527.570312 550.410156 525.21875 554.535156 522.515625 558.457031 C 527.613281 562.582031 532.625 566.75 537.265625 571.371094 C 541.515625 565.738281 546.339844 560.601562 551.3125 555.589844 Z M 563.191406 554.785156 C 563.730469 556.394531 563.480469 558.25 561.914062 559.796875 C 555.191406 566.542969 548.28125 573.230469 543.0625 581.195312 C 542.773438 581.6875 542.378906 582.121094 541.96875 582.453125 C 540.296875 585.03125 536.707031 586.289062 534.089844 583.339844 C 527.652344 575.933594 519.960938 569.867188 512.367188 563.675781 C 511.316406 562.832031 510.78125 561.820312 510.65625 560.808594 C 510.058594 559.160156 510.183594 557.238281 511.667969 555.546875 C 515.605469 550.96875 518.0625 545.3125 522.0625 540.773438 C 525.878906 536.339844 531.160156 533.183594 534.6875 528.519531 C 536.914062 525.609375 540.667969 525.859375 542.894531 527.589844 C 543.949219 527.921875 544.875 528.683594 545.558594 529.941406 C 549.765625 537.824219 554.984375 544.941406 561.542969 550.96875 C 562.84375 552.144531 563.277344 553.484375 563.191406 554.785156 " fill-opacity="1" fill-rule="nonzero"/><path fill="#000000" d="M 544.195312 622.292969 C 541.039062 622.210938 537.925781 622.210938 534.769531 622.292969 C 536.503906 627.59375 538.050781 632.9375 539.410156 638.324219 C 541 632.980469 542.566406 627.636719 544.195312 622.292969 Z M 560.285156 587.671875 C 566.183594 587.714844 566.925781 595.59375 562.675781 597.699219 C 562.636719 597.863281 562.59375 598.03125 562.554688 598.195312 C 556.28125 618.765625 549.929688 639.292969 543.949219 659.96875 C 543.390625 661.867188 542.132812 662.960938 540.628906 663.433594 C 537.882812 664.816406 534.171875 664.195312 533.46875 660.316406 C 529.675781 640.058594 524.25 620.023438 515.277344 601.390625 C 509.769531 603.25 505.398438 594.996094 510.988281 591.882812 C 515.402344 589.445312 520.371094 590.066406 525.21875 590.128906 C 531.574219 590.1875 531.945312 599.410156 526.4375 600.566406 C 528.128906 604.261719 529.675781 608.058594 531.160156 611.894531 C 536.542969 611.585938 541.96875 611.585938 547.394531 611.894531 C 548.796875 607.292969 550.175781 602.714844 551.558594 598.113281 C 550.734375 598.152344 549.890625 598.234375 549.042969 598.378906 C 546.21875 598.792969 543.390625 597.699219 542.609375 594.707031 C 541.886719 592.167969 543.390625 588.640625 546.257812 588.230469 C 550.980469 587.507812 555.5625 587.628906 560.285156 587.671875 " fill-opacity="1" fill-rule="nonzero"/><path fill="#000000" d="M 375.984375 438.871094 C 388.609375 415.125 410.554688 398.019531 430.667969 380.421875 C 409.667969 365.007812 389 347.53125 377.492188 324.03125 C 364.703125 347.449219 345.128906 366.351562 323.574219 381.988281 C 348.160156 392.757812 362.886719 416.011719 375.984375 438.871094 Z M 441.785156 376.128906 C 444.261719 377.84375 445.4375 381.347656 442.546875 383.96875 C 420.476562 403.714844 392.941406 422.53125 381.761719 451.085938 C 379.90625 455.75 373.71875 455.417969 371.777344 452.261719 C 371.425781 451.910156 371.097656 451.5 370.808594 451.003906 C 357.296875 427.152344 342.777344 399.277344 315.074219 389.933594 C 312.660156 389.085938 311.570312 387.148438 311.445312 385.144531 C 309.671875 382.855469 309.421875 379.121094 312.496094 377.015625 C 337.457031 359.789062 359.980469 338.144531 372.746094 310.1875 C 373.675781 305.773438 381.246094 304.578125 383.0625 310.023438 C 392.445312 338.144531 416.949219 357.644531 440.132812 374.355469 C 440.855469 374.871094 441.394531 375.488281 441.785156 376.128906 " fill-opacity="1" fill-rule="nonzero"/><path fill="#000000" d="M 385.414062 87.609375 C 416.394531 87.609375 441.539062 89.195312 441.539062 91.136719 C 441.539062 93.117188 416.394531 94.726562 385.414062 94.726562 C 354.429688 94.726562 329.308594 93.117188 329.308594 91.136719 C 329.308594 89.195312 354.429688 87.609375 385.414062 87.609375 " fill-opacity="1" fill-rule="nonzero"/><path fill="#000000" d="M 378.417969 664.652344 C 399.003906 664.941406 411.730469 665.660156 411.730469 666.632812 C 411.730469 667.601562 399.003906 668.695312 378.460938 669.664062 C 357.917969 670.632812 329.554688 671.480469 298.183594 671.933594 C 290.363281 672.058594 282.691406 672.140625 275.285156 672.222656 C 268.089844 672.304688 260.972656 672.78125 254.246094 673.191406 C 240.675781 674.121094 228.320312 674.679688 217.863281 674.164062 C 207.425781 673.667969 199.007812 671.976562 193.460938 669.953125 C 192.058594 669.398438 190.839844 668.902344 189.789062 668.488281 C 188.777344 667.972656 187.972656 667.519531 187.3125 667.125 C 185.992188 666.324219 185.375 665.785156 185.457031 665.578125 C 185.539062 665.375 186.386719 665.457031 187.851562 665.785156 C 188.613281 665.949219 189.5 666.199219 190.59375 666.550781 C 191.644531 666.753906 192.863281 667.003906 194.203125 667.292969 C 199.730469 668.40625 207.859375 669.273438 217.945312 669.167969 C 228.09375 669.023438 240.179688 667.929688 253.730469 666.671875 C 260.519531 666.09375 267.632812 665.457031 275.203125 665.289062 C 282.609375 665.144531 290.28125 664.980469 298.101562 664.855469 C 329.472656 664.363281 357.875 664.320312 378.417969 664.652344 " fill-opacity="1" fill-rule="nonzero"/><path fill="#000000" d="M 209.777344 138.300781 C 212.953125 138.382812 216.066406 138.382812 219.222656 138.300781 C 217.492188 133 215.921875 127.65625 214.582031 122.25 C 212.996094 127.613281 211.425781 132.957031 209.777344 138.300781 Z M 238.714844 159.179688 C 244.222656 157.34375 248.597656 165.578125 243.007812 168.691406 C 238.59375 171.148438 233.621094 170.507812 228.773438 170.46875 C 222.421875 170.382812 222.050781 161.160156 227.558594 160.027344 C 225.867188 156.3125 224.316406 152.539062 222.832031 148.699219 C 217.449219 148.988281 212.023438 148.988281 206.601562 148.699219 C 205.199219 153.28125 203.816406 157.882812 202.414062 162.460938 C 203.257812 162.421875 204.105469 162.359375 204.949219 162.214844 C 207.777344 161.800781 210.582031 162.894531 211.386719 165.886719 C 212.105469 168.402344 210.582031 171.953125 207.714844 172.363281 C 203.011719 173.085938 198.410156 172.964844 193.707031 172.921875 C 187.808594 172.859375 187.066406 165 191.316406 162.894531 C 191.355469 162.730469 191.398438 162.566406 191.4375 162.378906 C 197.710938 141.828125 204.0625 121.28125 210.042969 100.605469 C 210.582031 98.707031 211.859375 97.613281 213.367188 97.160156 C 216.109375 95.777344 219.800781 96.398438 220.523438 100.277344 C 224.316406 120.535156 229.742188 140.570312 238.714844 159.179688 " fill-opacity="1" fill-rule="nonzero"/><path fill="#000000" d="M 223.308594 213.753906 C 226.421875 210.183594 228.773438 206.058594 231.476562 202.136719 C 226.382812 198.011719 221.367188 193.84375 216.726562 189.199219 C 212.480469 194.855469 207.652344 199.992188 202.679688 205.003906 C 207.507812 209.957031 211.714844 215.488281 215.261719 221.429688 C 217.984375 218.933594 220.851562 216.578125 223.308594 213.753906 Z M 243.335938 199.785156 C 243.933594 201.414062 243.808594 203.355469 242.324219 205.046875 C 238.363281 209.625 235.929688 215.28125 231.929688 219.820312 C 228.09375 224.234375 222.832031 227.390625 219.304688 232.074219 C 217.078125 234.984375 213.324219 234.738281 211.097656 233.003906 C 210.042969 232.671875 209.117188 231.910156 208.4375 230.652344 C 204.226562 222.769531 199.007812 215.652344 192.449219 209.625 C 191.152344 208.449219 190.71875 207.109375 190.800781 205.808594 C 190.265625 204.199219 190.511719 202.34375 192.058594 200.796875 C 198.804688 194.050781 205.714844 187.363281 210.929688 179.402344 C 211.21875 178.886719 211.589844 178.472656 212.023438 178.140625 C 213.695312 175.5625 217.285156 174.304688 219.882812 177.253906 C 226.339844 184.660156 234.035156 190.726562 241.625 196.917969 C 242.65625 197.761719 243.210938 198.773438 243.335938 199.785156 " fill-opacity="1" fill-rule="nonzero"/></svg>