<?xml version="1.0" encoding="UTF-8"?>
<!DOCTYPE svg PUBLIC "-//W3C//DTD SVG 1.1//EN" "http://www.w3.org/Graphics/SVG/1.1/DTD/svg11.dtd">
<svg xmlns="http://www.w3.org/2000/svg" version="1.1" width="1200px" height="1200px" style="shape-rendering:geometricPrecision; text-rendering:geometricPrecision; image-rendering:optimizeQuality; fill-rule:evenodd; clip-rule:evenodd" xmlns:xlink="http://www.w3.org/1999/xlink">
<g><path style="opacity:0.978" fill="#000000" d="M 581.5,299.5 C 685.519,296.108 770.686,334.108 837,413.5C 894.606,489.615 913.606,574.615 894,668.5C 869.314,763.513 812.814,832.346 724.5,875C 641.017,910.62 557.684,910.287 474.5,874C 386.718,831.206 330.885,762.372 307,667.5C 286.855,566.739 309.855,477.405 376,399.5C 431.566,339.801 500.066,306.468 581.5,299.5 Z M 596.5,329.5 C 697.74,331.519 775.907,374.519 831,458.5C 877.221,538.571 883.221,621.571 849,707.5C 839.197,729.789 826.864,750.455 812,769.5C 792.358,691.027 744.525,638.027 668.5,610.5C 623.287,633.154 578.12,633.154 533,610.5C 456.595,637.636 408.928,690.636 390,769.5C 346.042,713.946 326.375,650.613 331,579.5C 339.449,496.182 376.949,429.682 443.5,380C 489.521,348.048 540.521,331.215 596.5,329.5 Z"/></g>
<g><path style="opacity:0.986" fill="#000000" d="M 586.5,385.5 C 639.962,382.296 678.129,404.629 701,452.5C 717.355,500.914 706.855,542.414 669.5,577C 626.958,607.678 583.292,609.345 538.5,582C 501.206,553.471 486.706,515.971 495,469.5C 508.234,422.642 538.734,394.642 586.5,385.5 Z"/></g>
</svg>
